<svg viewBox="0 0 514 382" fill="none" xmlns="http://www.w3.org/2000/svg">
    <path d="M403 354.5C386 313.5 372.5 310.833 359 295H397C419 314.833 445.5 357.5 427.5 374.5C412.543 388.626 407.788 366.047 403 354.5Z" fill="#7D7B7B" stroke="black" stroke-width="5"/>
    <circle cx="250.5" cy="172.5" r="172.5" fill="#009CFD"/>
    <path d="M2 53.5C49 60.5 89 86.5 100.5 99.5C95.3 97.5 93.5 108.5 94.5 111.5C93 109 38.5 73 2 53.5Z" fill="#E83535" stroke="black" stroke-width="5"/>
    <path d="M171 146C144.013 109.838 116.121 97.7358 101.121 97.9025C86.1214 97.9025 93.6217 122.902 109.622 125.402C136.122 133.402 207.121 201.402 245.621 247.902C275.306 283.755 310.161 293.073 325.479 293.402C326.054 293.415 326.602 293.415 327.121 293.402C351.122 296.402 401.622 295.902 415.621 293.402C429.896 290.853 429.788 287.569 427.621 283.402C404.421 250.602 363.621 246.069 346.121 247.902C327.455 246.569 292.921 238.902 304.121 218.902C315.321 198.902 341.621 215.402 341.621 215.402C349.495 217.703 367.619 218.524 377.121 203.402C390.829 201.37 421.819 193.224 436.121 176.902C437.5 176.902 481.743 156.805 498.621 120.402C508.995 108.537 524.219 83.3245 502.121 77.4025C435.721 64.6025 379.455 82.7358 359.621 93.4025C303.788 129.069 196 179.5 171 146Z" fill="#FCFCFC"/>
    <path d="M502.121 77.4025C435.721 64.6025 379.455 82.7358 359.621 93.4025C303.788 129.069 196 179.5 171 146C144.013 109.838 116.121 97.7358 101.121 97.9025C86.1214 97.9025 93.6217 122.902 109.622 125.402C136.122 133.402 207.121 201.402 245.621 247.902C275.306 283.755 310.161 293.073 325.479 293.402C326.054 293.415 326.602 293.415 327.121 293.402C351.122 296.402 401.622 295.902 415.621 293.402C429.896 290.853 429.788 287.569 427.621 283.402C404.421 250.602 363.621 246.069 346.121 247.902C327.455 246.569 292.921 238.902 304.121 218.902C315.321 198.902 341.621 215.402 341.621 215.402C349.495 217.703 367.619 218.524 377.121 203.402C369.455 199.569 353.321 191.002 350.121 187.402M498.621 120.402C482.621 130.569 442.321 149.202 409.121 142.402M436.121 176.902C428.955 179.236 407.121 180.402 377.121 166.402" stroke="black" stroke-width="5"/>
</svg>
